<svg xmlns="http://www.w3.org/2000/svg" width="24" height="24" viewBox="0 0 24 24"><defs><style>.a{fill:#b7b5be;}.b{fill:none;}</style></defs><g transform="translate(-574 -872)"><path class="a" d="M1437.339,1267.469a13.916,13.916,0,0,0,14.01-14.011c0-.213,0-.425-.014-.636a10.032,10.032,0,0,0,2.457-2.549,9.807,9.807,0,0,1-2.828.775,4.94,4.94,0,0,0,2.165-2.724,9.852,9.852,0,0,1-3.127,1.2,4.929,4.929,0,0,0-8.391,4.491,13.982,13.982,0,0,1-10.148-5.145,4.925,4.925,0,0,0,1.525,6.572,4.87,4.87,0,0,1-2.235-.616v.063a4.927,4.927,0,0,0,3.95,4.827,4.922,4.922,0,0,1-2.223.084,4.93,4.93,0,0,0,4.6,3.42,9.869,9.869,0,0,1-7.287,2.04,13.94,13.94,0,0,0,7.547,2.208" transform="translate(-855.792 -373.396)"/><rect class="b" width="24" height="24" transform="translate(574 872)"/></g></svg>