<svg xmlns="http://www.w3.org/2000/svg" width="24" height="32" viewBox="0 0 24 32"><defs><style>.a{fill:#5ac3dc;}.b{fill:none;}</style></defs><g transform="translate(-637 -884)"><path class="a" d="M452.624,45.913a11.2,11.2,0,0,0-11.2,11.2c0,.206.007.411.018.614.367,11.856,11.186,20.182,11.186,20.182s10.819-8.326,11.186-20.182q.017-.3.017-.614A11.2,11.2,0,0,0,452.624,45.913Zm0,15.776a4.572,4.572,0,1,1,4.571-4.572A4.572,4.572,0,0,1,452.624,61.689Z" transform="translate(196.58 838.087)"/><rect class="b" width="24" height="32" transform="translate(637 884)"/></g></svg>