<svg xmlns="http://www.w3.org/2000/svg" viewBox="0 0 179.648 32"><defs><style>.a{fill:#0f0a28;}.b{fill:#fa5050;}.c{fill:#5ac3dc;}.d{fill:#f5a05f;}.e{fill:#ffc350;}</style></defs><g transform="translate(-460 -17)"><g transform="translate(547.895 17)"><circle class="a" cx="12.47" cy="12.47" r="12.47" transform="translate(0 3.53)"/><g transform="translate(4.752)"><path class="a" d="M113.661,3.906l.856-1.967A1.387,1.387,0,1,0,111.976.828L111.12,2.8c.433.141.866.3,1.3.489A12.74,12.74,0,0,1,113.661,3.906Z" transform="translate(-99.186 0)"/><path class="a" d="M99.409,29.85l-.856,1.967a1.387,1.387,0,0,0,2.541,1.111l.856-1.967c-.433-.141-.866-.3-1.3-.489A12.74,12.74,0,0,1,99.409,29.85Z" transform="translate(-98.44 -1.756)"/></g><path class="b" d="M97.14,12.58a9.661,9.661,0,0,0-.151,7.313L102.382,7.46A9.716,9.716,0,0,0,97.14,12.58Z" transform="translate(-93.564 -0.439)"/><path class="c" d="M105.855,6.72,98.9,22.766a9.454,9.454,0,0,0,2.212,1.873l7.623-17.59A9.416,9.416,0,0,0,105.855,6.72Z" transform="translate(-93.714 -0.395)"/><path class="d" d="M113.627,14.875l2.946,1.28A9.724,9.724,0,0,0,111.98,8.23l-1.12,2.588A6.907,6.907,0,0,1,113.627,14.875Z" transform="translate(-94.418 -0.484)"/><path class="e" d="M112.166,20.926a6.934,6.934,0,0,1-7.106,2.8L103.95,26.3a9.7,9.7,0,0,0,11.435-5.487,9.907,9.907,0,0,0,.452-1.318l-7.52-3.266-1.1,2.541Z" transform="translate(-94.011 -0.955)"/></g><g transform="translate(460 20.464)"><path class="a" d="M13.939,11.164a6.433,6.433,0,0,1-6.673,6.494H4.085v5.9H0V4.67H7.266A6.433,6.433,0,0,1,13.939,11.164Zm-4.141,0A2.589,2.589,0,0,0,7.087,8.453h-3v5.421h3A2.589,2.589,0,0,0,9.8,11.164Z" transform="translate(0 -3.738)"/><path class="a" d="M17.55,3.68h3.943V23.51H17.55Z" transform="translate(-1.033 -3.68)"/><path class="a" d="M40.533,9.206V23.784H37.446l-.339-1.308a7.1,7.1,0,0,1-4.725,1.741A7.492,7.492,0,0,1,24.74,16.5a7.466,7.466,0,0,1,7.642-7.68,7.125,7.125,0,0,1,4.79,1.779L37.6,9.206ZM36.674,16.5a3.972,3.972,0,1,0-7.943,0,3.972,3.972,0,1,0,7.943,0Z" transform="translate(-1.456 -3.982)"/><path class="a" d="M59.69,9.26,53.337,23.641c-1.751,3.953-3.285,5.449-6.55,5.449H45.159V25.551h1.365c1.9,0,2.391-.508,3.285-2.711l.056-.122L43.7,9.26h4.292l3.887,8.969L55.512,9.26H59.69Z" transform="translate(-2.571 -4.008)"/><path class="a" d="M76.484,9.234V22.119c0,4.565-2.833,7.36-7.445,7.36-3.943,0-6.758-2.023-7.426-5.355h3.915A3.507,3.507,0,0,0,68.974,26.1a3.4,3.4,0,0,0,3.642-3.416v-.546a7.269,7.269,0,0,1-11.416-6A7.219,7.219,0,0,1,68.447,8.82a7.058,7.058,0,0,1,4.847,1.863l.631-1.449h2.56Zm-3.84,6.908a3.718,3.718,0,1,0-7.435,0,3.718,3.718,0,1,0,7.435,0Z" transform="translate(-3.601 -3.982)"/><path class="a" d="M90.223,9.17v3.718H88.51c-2.221,0-3.1.988-3.1,3.369v7.576H81.47V9.255H84l.7,1.788a4.963,4.963,0,0,1,4.226-1.863h1.3Z" transform="translate(-4.794 -4.003)"/></g><g transform="translate(575.903 20.454)"><path class="a" d="M123.15,17.674V9.26h3.943v7.972c0,2.071,1.1,3.313,2.918,3.313s2.9-1.261,2.9-3.313V9.26h3.943v8.423c0,3.934-2.711,6.569-6.833,6.569S123.15,21.617,123.15,17.674Z" transform="translate(-123.15 -3.999)"/><path class="a" d="M155.213,14.979v8.837H151.27v-8.2c0-2.2-.838-3.266-2.541-3.266-2.033,0-3.275,1.459-3.275,3.8v7.661H141.51V9.238h2.7l.772,1.8a6.237,6.237,0,0,1,4.828-2.146C153.143,8.89,155.213,11.29,155.213,14.979Z" transform="translate(-124.23 -3.977)"/><path class="a" d="M174.485,3.679V23.51h-2.908l-.461-1.214a6.936,6.936,0,0,1-4.565,1.647,7.485,7.485,0,0,1-7.661-7.717,7.464,7.464,0,0,1,7.661-7.7,7.018,7.018,0,0,1,4,1.2V3.67Zm-3.642,12.536a3.972,3.972,0,1,0-7.943,0,3.972,3.972,0,1,0,7.943,0Z" transform="translate(-125.253 -3.67)"/><path class="a" d="M190.127,20.205v3.623H178.08v-.442l6.212-10.56h-5.609V9.25h11.444v.536L183.99,20.2h6.136Z" transform="translate(-126.382 -3.998)"/></g></g></svg>