<svg xmlns="http://www.w3.org/2000/svg" xmlns:xlink="http://www.w3.org/1999/xlink" width="381" height="42" viewBox="0 0 381 42"><defs><path id="kur5a" d="M699 54V12h317v42z"/><path id="kur5b" d="M688 54h11V12h-11c-11.597 0-21 9.402-21 21s9.403 21 21 21z"/><path id="kur5c" d="M673.019 26.504c-1.765 4.071-1.729 8.472-.257 12.321l9.075-20.93c-3.816 1.557-7.053 4.539-8.818 8.609z"/><path id="kur5d" d="M687.44 16.7l-11.72 27.031a16.142 16.142 0 0 0 3.719 3.151l12.843-29.621a16.165 16.165 0 0 0-4.842-.561z"/><path id="kur5e" d="M1027 12h-11v42h11c11.597 0 21-9.402 21-21s-9.403-21-21-21z"/><path id="kur5f" d="M1038.337 30.288l4.962 2.151c-.193-5.354-3.011-10.43-7.731-13.338l-1.889 4.357a11.654 11.654 0 0 1 4.658 6.83z"/><path id="kur5g" d="M1036.558 39.686a11.673 11.673 0 0 1-11.962 4.721l-1.878 4.331c7.701 2.099 15.997-1.71 19.263-9.243.316-.728.554-1.469.757-2.214l-12.67-5.494-1.856 4.281z"/><path id="kur5h" d="M701.525 35.86c-2.02-2.02-2.02-5.31 0-7.34a5.15 5.15 0 0 1 3.67-1.52c1.39 0 2.69.54 3.67 1.52 2.02 2.02 2.02 5.31 0 7.34a5.15 5.15 0 0 1-3.67 1.52 5.15 5.15 0 0 1-3.67-1.52zm12.19 3.43l-3.51-3.51c1.74-2.42 1.54-5.8-.64-7.97a6.155 6.155 0 0 0-4.37-1.81c-1.58 0-3.17.6-4.38 1.81a6.18 6.18 0 0 0 0 8.75 6.161 6.161 0 0 0 4.38 1.81c1.27 0 2.52-.4 3.6-1.18l3.51 3.51z"/></defs><g><g transform="translate(-667 -12)"><g><use fill="#0f0a28" xlink:href="#kur5a"/></g><g><g><use fill="#0f0a28" xlink:href="#kur5b"/></g><g><g><use fill="#fa5050" xlink:href="#kur5c"/></g><g><use fill="#5ac3dc" xlink:href="#kur5d"/></g></g></g><g><g><use fill="#0f0a28" xlink:href="#kur5e"/></g><g><g><use fill="#f5a05f" xlink:href="#kur5f"/></g><g><use fill="#ffc350" xlink:href="#kur5g"/></g></g></g><g><g><use fill="#868493" xlink:href="#kur5h"/></g></g></g></g></svg>