<svg xmlns="http://www.w3.org/2000/svg" width="44" height="38" viewBox="0 0 44 38"><defs><style>.a{fill:#fa5050;}.b{fill:#fff;}.c{fill:none;}</style></defs><g transform="translate(-1359 -317)"><g transform="translate(1365.286 322.067)"><path class="a" d="M277.764,880h0c-.058-.058-.121-.108-.181-.165s-.107-.125-.166-.185a8.539,8.539,0,0,0-12.14,0,8.724,8.724,0,0,0-.867,1.038,8.678,8.678,0,0,0-.867-1.038,8.539,8.539,0,0,0-12.14,0c-.058.06-.109.124-.165.185s-.123.106-.181.165h0a8.223,8.223,0,0,0,0,11.533l7.63,7.688,5.723,5.766,5.723-5.766h0l7.283-7.339h0l.347-.349A8.223,8.223,0,0,0,277.764,880Z" transform="translate(-248.696 -877.115)"/><g transform="translate(5.364 5.16)"><rect class="b" width="2.245" height="6.786" transform="translate(2.245)"/><rect class="b" width="2.262" height="6.735" transform="translate(6.735 2.262) rotate(90)"/></g><g transform="translate(17.593 6.061)"><ellipse class="b" cx="1.684" cy="1.696" rx="1.684" ry="1.696" transform="translate(0 3.998)"/><ellipse class="b" cx="1.684" cy="1.696" rx="1.684" ry="1.696" transform="translate(3.968)"/></g></g><rect class="c" width="44" height="38" transform="translate(1359 317)"/></g></svg>