<svg xmlns="http://www.w3.org/2000/svg" width="40" height="40" viewBox="0 0 40 40"><defs><style>.a{fill:#868493;}.b{fill:none;}</style></defs><g transform="translate(-1320 -10)"><g transform="translate(1329 19)"><path class="a" d="M13.28,2a3.166,3.166,0,0,1,3.06,2.22l3.58,11.59H2.71L6.29,4.22A3.166,3.166,0,0,1,9.35,2h3.93m0-2H9.35A5.192,5.192,0,0,0,4.38,3.63L0,17.81H22.63L18.25,3.63A5.174,5.174,0,0,0,13.28,0Z"/><path class="a" d="M11.32,22.25A4.259,4.259,0,0,1,7.07,18a4.394,4.394,0,0,1,.08-.78l.04-.2H8.75l-.08.31a2.42,2.42,0,0,0-.1.67,2.75,2.75,0,1,0,5.5,0,2.962,2.962,0,0,0-.09-.68l-.08-.31h1.56l.04.2a4.489,4.489,0,0,1,.08.78A4.276,4.276,0,0,1,11.32,22.25Z"/><path class="a" d="M15.24,17.26a4.423,4.423,0,0,1,.07.74,4,4,0,0,1-8,0,4.525,4.525,0,0,1,.07-.74H8.41a3,3,0,1,0,5.8,0h1.03m.42-.5H13.57l.16.62a2.432,2.432,0,0,1,.09.61,2.5,2.5,0,1,1-5,0,2.37,2.37,0,0,1,.09-.61l.16-.62H6.98l-.08.41a4.151,4.151,0,0,0-.08.83,4.5,4.5,0,1,0,9,0,5.046,5.046,0,0,0-.08-.83l-.08-.41Z"/></g><rect class="b" width="40" height="40" transform="translate(1320 10)"/></g></svg>