<svg xmlns="http://www.w3.org/2000/svg" width="16" height="16" viewBox="0 0 16 16"><defs><style>.a{fill:#1496be;}</style></defs><g transform="translate(-573.226 -721.831)"><path class="a" d="M586.726,721.831h-3.5v2h2.585l-5.292,5.293,1.414,1.414,5.293-5.293v2.586h2v-3.5A2.5,2.5,0,0,0,586.726,721.831Z"/><path class="a" d="M587.226,735.331a.5.5,0,0,1-.5.5h-11a.5.5,0,0,1-.5-.5v-11a.5.5,0,0,1,.5-.5h5.5v-2h-5.5a2.5,2.5,0,0,0-2.5,2.5v11a2.5,2.5,0,0,0,2.5,2.5h11a2.5,2.5,0,0,0,2.5-2.5v-5.5h-2Z"/></g></svg>