<svg xmlns="http://www.w3.org/2000/svg" xmlns:xlink="http://www.w3.org/1999/xlink" width="34" height="34" viewBox="0 0 34 34"><defs><path id="7ukya" d="M496 736c0-8.837 7.163-16 16-16s16 7.163 16 16-7.163 16-16 16-16-7.163-16-16z"/><path id="7ukyb" d="M512 719c-9.39 0-17 7.61-17 17s7.61 17 17 17 17-7.61 17-17-7.61-17-17-17zm0 2c8.27 0 15 6.73 15 15s-6.73 15-15 15-15-6.73-15-15 6.73-15 15-15"/><path id="7ukyc" d="M512 726.35c-3.9 0-7.08 3.24-7.08 7.19v11.23l1.77-1.69 1.77 1.69 1.77-1.69 1.77 1.69 1.77-1.69 1.77 1.69 1.77-1.69 1.77 1.69v-11.23c0-3.96-3.18-7.19-7.08-7.19z"/><path id="7ukyd" d="M507.75 734.19a1.42 1.42 0 1 1 2.84 0 1.42 1.42 0 0 1-2.84 0z"/><path id="7ukye" d="M513.41 734.19a1.42 1.42 0 1 1 2.84 0 1.42 1.42 0 0 1-2.84 0z"/></defs><g><g transform="translate(-495 -719)"><g><g><use fill="#fff" xlink:href="#7ukya"/></g><g><use fill="#868493" xlink:href="#7ukyb"/></g></g><g><g><use fill="#868493" xlink:href="#7ukyc"/></g></g><g><g><g><use fill="#fff" xlink:href="#7ukyd"/></g></g><g><g><use fill="#fff" xlink:href="#7ukye"/></g></g></g></g></g></svg>