<svg xmlns="http://www.w3.org/2000/svg" width="40" height="40" viewBox="0 0 40 40"><defs><style>.a{fill:none;}.b{fill:#868493;}</style></defs><g transform="translate(-477.231 -311.598)"><rect class="a" width="40" height="40" transform="translate(477.231 311.598)"/><g transform="translate(-64.87 -30.505)"><path class="b" d="M2,0H6A0,0,0,0,1,6,0V4A0,0,0,0,1,6,4H0A0,0,0,0,1,0,4V2A2,2,0,0,1,2,0Z" transform="translate(551.101 351.103)"/><path class="b" d="M0,0H12a2,2,0,0,1,2,2V4a0,0,0,0,1,0,0H0A0,0,0,0,1,0,4V0A0,0,0,0,1,0,0Z" transform="translate(559.101 351.103)"/><rect class="b" width="6" height="4" transform="translate(551.101 357.103)"/><rect class="b" width="14" height="4" transform="translate(559.101 357.103)"/><path class="b" d="M0,0H6A0,0,0,0,1,6,0V4A0,0,0,0,1,6,4H2A2,2,0,0,1,0,2V0A0,0,0,0,1,0,0Z" transform="translate(551.101 369.103)"/><path class="b" d="M0,0H14a0,0,0,0,1,0,0V2a2,2,0,0,1-2,2H0A0,0,0,0,1,0,4V0A0,0,0,0,1,0,0Z" transform="translate(559.101 369.103)"/><rect class="b" width="6" height="4" transform="translate(551.101 363.103)"/><rect class="b" width="14" height="4" transform="translate(559.101 363.103)"/></g></g></svg>