<svg xmlns="http://www.w3.org/2000/svg" width="26" height="24" viewBox="0 0 26 24"><defs><style>.a{fill:none;}.b{fill:#b7b5be;}</style></defs><g transform="translate(-919.479 -1601.041)"><rect class="a" width="26" height="24" transform="translate(919.479 1601.041)"/><path class="b" d="M932.837,1615.261l11.86-9.995a1.818,1.818,0,0,0-.864-.225H921.8a1.826,1.826,0,0,0-.842.213Z" transform="translate(-0.482 -0.571)"/><path class="b" d="M933.084,1618.827l-.005,0c-.029.023-.059.042-.088.062a1.079,1.079,0,0,1-.146.086l-.019.009a1.147,1.147,0,0,1-1.369-.292c-.007-.009-.012-.018-.019-.027l-11.958-10.078v13.793a1.841,1.841,0,0,0,1.842,1.829h22.03a1.841,1.841,0,0,0,1.842-1.829v-13.761Z" transform="translate(0 -1.743)"/></g></svg>